<mxfile host="Electron" modified="2023-04-14T11:58:15.890Z" agent="Mozilla/5.0 (Windows NT 10.0; Win64; x64) AppleWebKit/537.36 (KHTML, like Gecko) draw.io/21.1.2 Chrome/106.0.5249.199 Electron/21.4.3 Safari/537.36" etag="agcNRRhuesVUFTwBYdk4" version="21.1.2" type="device">
  <diagram name="Seite-1" id="nwKqBb7dtvyZMgcb7HCO">
    <mxGraphModel dx="792" dy="1188" grid="1" gridSize="10" guides="1" tooltips="1" connect="1" arrows="1" fold="1" page="1" pageScale="1" pageWidth="827" pageHeight="1169" math="0" shadow="0">
      <root>
        <mxCell id="0" />
        <mxCell id="1" parent="0" />
        <mxCell id="YhagCRoTJIzjtWiBORJF-1" value="UI" style="rounded=0;whiteSpace=wrap;html=1;" parent="1" vertex="1">
          <mxGeometry x="20" y="75" width="630" height="60" as="geometry" />
        </mxCell>
        <mxCell id="YhagCRoTJIzjtWiBORJF-2" value="Notification" style="rounded=0;whiteSpace=wrap;html=1;" parent="1" vertex="1">
          <mxGeometry x="20" y="205" width="120" height="60" as="geometry" />
        </mxCell>
        <mxCell id="YhagCRoTJIzjtWiBORJF-3" value="Customer" style="rounded=0;whiteSpace=wrap;html=1;" parent="1" vertex="1">
          <mxGeometry x="275" y="205" width="120" height="60" as="geometry" />
        </mxCell>
        <mxCell id="YhagCRoTJIzjtWiBORJF-4" value="Policy" style="rounded=0;whiteSpace=wrap;html=1;" parent="1" vertex="1">
          <mxGeometry x="530" y="205" width="120" height="60" as="geometry" />
        </mxCell>
        <mxCell id="YhagCRoTJIzjtWiBORJF-5" value="" style="endArrow=classic;html=1;rounded=0;entryX=0.75;entryY=0;entryDx=0;entryDy=0;exitX=0.549;exitY=1.017;exitDx=0;exitDy=0;exitPerimeter=0;" parent="1" source="YhagCRoTJIzjtWiBORJF-1" target="YhagCRoTJIzjtWiBORJF-3" edge="1">
          <mxGeometry width="50" height="50" relative="1" as="geometry">
            <mxPoint x="280" y="465" as="sourcePoint" />
            <mxPoint x="330" y="415" as="targetPoint" />
          </mxGeometry>
        </mxCell>
        <mxCell id="YhagCRoTJIzjtWiBORJF-6" value="1. Kunden&lt;br&gt;anlegen" style="edgeLabel;html=1;align=center;verticalAlign=middle;resizable=0;points=[];" parent="YhagCRoTJIzjtWiBORJF-5" vertex="1" connectable="0">
          <mxGeometry x="0.3336" y="-1" relative="1" as="geometry">
            <mxPoint x="31" y="-7" as="offset" />
          </mxGeometry>
        </mxCell>
        <mxCell id="YhagCRoTJIzjtWiBORJF-7" value="" style="endArrow=classic;html=1;rounded=0;entryX=0.441;entryY=1.017;entryDx=0;entryDy=0;entryPerimeter=0;" parent="1" target="YhagCRoTJIzjtWiBORJF-1" edge="1">
          <mxGeometry width="50" height="50" relative="1" as="geometry">
            <mxPoint x="298" y="205" as="sourcePoint" />
            <mxPoint x="340" y="355" as="targetPoint" />
          </mxGeometry>
        </mxCell>
        <mxCell id="YhagCRoTJIzjtWiBORJF-8" value="3. OK/Err" style="edgeLabel;html=1;align=center;verticalAlign=middle;resizable=0;points=[];" parent="YhagCRoTJIzjtWiBORJF-7" vertex="1" connectable="0">
          <mxGeometry x="-0.536" y="2" relative="1" as="geometry">
            <mxPoint x="-26" y="-14" as="offset" />
          </mxGeometry>
        </mxCell>
        <mxCell id="YhagCRoTJIzjtWiBORJF-9" value="Kunden anlegen&lt;br&gt;" style="text;html=1;align=center;verticalAlign=middle;resizable=0;points=[];autosize=1;strokeColor=none;fillColor=none;" parent="1" vertex="1">
          <mxGeometry x="265" y="20" width="110" height="30" as="geometry" />
        </mxCell>
        <mxCell id="YhagCRoTJIzjtWiBORJF-10" value="" style="endArrow=classic;html=1;rounded=0;exitX=0;exitY=0.25;exitDx=0;exitDy=0;entryX=1;entryY=0.25;entryDx=0;entryDy=0;" parent="1" source="YhagCRoTJIzjtWiBORJF-3" target="YhagCRoTJIzjtWiBORJF-2" edge="1">
          <mxGeometry width="50" height="50" relative="1" as="geometry">
            <mxPoint x="490" y="305" as="sourcePoint" />
            <mxPoint x="540" y="255" as="targetPoint" />
          </mxGeometry>
        </mxCell>
        <mxCell id="YhagCRoTJIzjtWiBORJF-11" value="2. notifyWelcome &lt;br&gt;(Mail, Anrede, Name)" style="edgeLabel;html=1;align=center;verticalAlign=middle;resizable=0;points=[];" parent="YhagCRoTJIzjtWiBORJF-10" vertex="1" connectable="0">
          <mxGeometry x="0.5852" y="1" relative="1" as="geometry">
            <mxPoint x="42" y="-16" as="offset" />
          </mxGeometry>
        </mxCell>
        <mxCell id="YhagCRoTJIzjtWiBORJF-12" value="" style="endArrow=classic;html=1;rounded=0;exitX=1;exitY=0.75;exitDx=0;exitDy=0;entryX=0;entryY=0.75;entryDx=0;entryDy=0;" parent="1" source="YhagCRoTJIzjtWiBORJF-2" target="YhagCRoTJIzjtWiBORJF-3" edge="1">
          <mxGeometry width="50" height="50" relative="1" as="geometry">
            <mxPoint x="360" y="345" as="sourcePoint" />
            <mxPoint x="410" y="295" as="targetPoint" />
          </mxGeometry>
        </mxCell>
        <mxCell id="YhagCRoTJIzjtWiBORJF-13" value="4. OK/Err&lt;br&gt;" style="edgeLabel;html=1;align=center;verticalAlign=middle;resizable=0;points=[];" parent="YhagCRoTJIzjtWiBORJF-12" vertex="1" connectable="0">
          <mxGeometry x="0.1556" y="-3" relative="1" as="geometry">
            <mxPoint x="-8" y="12" as="offset" />
          </mxGeometry>
        </mxCell>
        <mxCell id="YhagCRoTJIzjtWiBORJF-40" value="UI" style="rounded=0;whiteSpace=wrap;html=1;" parent="1" vertex="1">
          <mxGeometry x="740" y="75" width="630" height="60" as="geometry" />
        </mxCell>
        <mxCell id="YhagCRoTJIzjtWiBORJF-41" value="Notification" style="rounded=0;whiteSpace=wrap;html=1;" parent="1" vertex="1">
          <mxGeometry x="740" y="205" width="120" height="60" as="geometry" />
        </mxCell>
        <mxCell id="YhagCRoTJIzjtWiBORJF-42" value="Customer" style="rounded=0;whiteSpace=wrap;html=1;" parent="1" vertex="1">
          <mxGeometry x="995" y="205" width="120" height="60" as="geometry" />
        </mxCell>
        <mxCell id="YhagCRoTJIzjtWiBORJF-43" value="Policy" style="rounded=0;whiteSpace=wrap;html=1;" parent="1" vertex="1">
          <mxGeometry x="1250" y="205" width="120" height="60" as="geometry" />
        </mxCell>
        <mxCell id="YhagCRoTJIzjtWiBORJF-44" value="Kundenliste ansehen" style="text;html=1;align=center;verticalAlign=middle;resizable=0;points=[];autosize=1;strokeColor=none;fillColor=none;" parent="1" vertex="1">
          <mxGeometry x="970" y="20" width="140" height="30" as="geometry" />
        </mxCell>
        <mxCell id="YhagCRoTJIzjtWiBORJF-45" value="" style="endArrow=classic;html=1;rounded=0;entryX=0.75;entryY=0;entryDx=0;entryDy=0;" parent="1" target="YhagCRoTJIzjtWiBORJF-42" edge="1">
          <mxGeometry width="50" height="50" relative="1" as="geometry">
            <mxPoint x="1085" y="140" as="sourcePoint" />
            <mxPoint x="920" y="180" as="targetPoint" />
          </mxGeometry>
        </mxCell>
        <mxCell id="YhagCRoTJIzjtWiBORJF-46" value="1. getCustomerList" style="edgeLabel;html=1;align=center;verticalAlign=middle;resizable=0;points=[];" parent="YhagCRoTJIzjtWiBORJF-45" vertex="1" connectable="0">
          <mxGeometry x="-0.4769" y="3" relative="1" as="geometry">
            <mxPoint x="72" y="3" as="offset" />
          </mxGeometry>
        </mxCell>
        <mxCell id="YhagCRoTJIzjtWiBORJF-47" value="" style="endArrow=classic;html=1;rounded=0;exitX=0.25;exitY=0;exitDx=0;exitDy=0;entryX=0.448;entryY=1;entryDx=0;entryDy=0;entryPerimeter=0;" parent="1" source="YhagCRoTJIzjtWiBORJF-42" target="YhagCRoTJIzjtWiBORJF-40" edge="1">
          <mxGeometry width="50" height="50" relative="1" as="geometry">
            <mxPoint x="910" y="240" as="sourcePoint" />
            <mxPoint x="960" y="190" as="targetPoint" />
          </mxGeometry>
        </mxCell>
        <mxCell id="YhagCRoTJIzjtWiBORJF-48" value="2. CustomerList" style="edgeLabel;html=1;align=center;verticalAlign=middle;resizable=0;points=[];" parent="YhagCRoTJIzjtWiBORJF-47" vertex="1" connectable="0">
          <mxGeometry x="0.3145" relative="1" as="geometry">
            <mxPoint x="-53" y="1" as="offset" />
          </mxGeometry>
        </mxCell>
        <mxCell id="YhagCRoTJIzjtWiBORJF-49" value="UI" style="rounded=0;whiteSpace=wrap;html=1;" parent="1" vertex="1">
          <mxGeometry x="20" y="375" width="630" height="60" as="geometry" />
        </mxCell>
        <mxCell id="YhagCRoTJIzjtWiBORJF-50" value="Notification" style="rounded=0;whiteSpace=wrap;html=1;" parent="1" vertex="1">
          <mxGeometry x="20" y="505" width="120" height="60" as="geometry" />
        </mxCell>
        <mxCell id="YhagCRoTJIzjtWiBORJF-51" value="Customer" style="rounded=0;whiteSpace=wrap;html=1;" parent="1" vertex="1">
          <mxGeometry x="275" y="505" width="120" height="60" as="geometry" />
        </mxCell>
        <mxCell id="YhagCRoTJIzjtWiBORJF-52" value="Policy" style="rounded=0;whiteSpace=wrap;html=1;" parent="1" vertex="1">
          <mxGeometry x="530" y="505" width="120" height="60" as="geometry" />
        </mxCell>
        <mxCell id="YhagCRoTJIzjtWiBORJF-53" value="Kunde ansehen" style="text;html=1;align=center;verticalAlign=middle;resizable=0;points=[];autosize=1;strokeColor=none;fillColor=none;" parent="1" vertex="1">
          <mxGeometry x="265" y="320" width="110" height="30" as="geometry" />
        </mxCell>
        <mxCell id="YhagCRoTJIzjtWiBORJF-54" value="" style="endArrow=classic;html=1;rounded=0;entryX=0.75;entryY=0;entryDx=0;entryDy=0;" parent="1" target="YhagCRoTJIzjtWiBORJF-51" edge="1">
          <mxGeometry width="50" height="50" relative="1" as="geometry">
            <mxPoint x="365" y="440" as="sourcePoint" />
            <mxPoint x="200" y="480" as="targetPoint" />
          </mxGeometry>
        </mxCell>
        <mxCell id="YhagCRoTJIzjtWiBORJF-55" value="1. getCustomer" style="edgeLabel;html=1;align=center;verticalAlign=middle;resizable=0;points=[];" parent="YhagCRoTJIzjtWiBORJF-54" vertex="1" connectable="0">
          <mxGeometry x="-0.4769" y="3" relative="1" as="geometry">
            <mxPoint x="42" y="3" as="offset" />
          </mxGeometry>
        </mxCell>
        <mxCell id="YhagCRoTJIzjtWiBORJF-56" value="" style="endArrow=classic;html=1;rounded=0;exitX=0.25;exitY=0;exitDx=0;exitDy=0;entryX=0.448;entryY=1;entryDx=0;entryDy=0;entryPerimeter=0;" parent="1" source="YhagCRoTJIzjtWiBORJF-51" target="YhagCRoTJIzjtWiBORJF-49" edge="1">
          <mxGeometry width="50" height="50" relative="1" as="geometry">
            <mxPoint x="190" y="540" as="sourcePoint" />
            <mxPoint x="240" y="490" as="targetPoint" />
          </mxGeometry>
        </mxCell>
        <mxCell id="YhagCRoTJIzjtWiBORJF-57" value="2. Customer" style="edgeLabel;html=1;align=center;verticalAlign=middle;resizable=0;points=[];" parent="YhagCRoTJIzjtWiBORJF-56" vertex="1" connectable="0">
          <mxGeometry x="0.3145" relative="1" as="geometry">
            <mxPoint x="-53" y="1" as="offset" />
          </mxGeometry>
        </mxCell>
        <mxCell id="YhagCRoTJIzjtWiBORJF-58" value="" style="endArrow=classic;html=1;rounded=0;entryX=0.75;entryY=0;entryDx=0;entryDy=0;exitX=0.952;exitY=1.033;exitDx=0;exitDy=0;exitPerimeter=0;" parent="1" source="YhagCRoTJIzjtWiBORJF-49" target="YhagCRoTJIzjtWiBORJF-52" edge="1">
          <mxGeometry width="50" height="50" relative="1" as="geometry">
            <mxPoint x="530" y="700" as="sourcePoint" />
            <mxPoint x="580" y="650" as="targetPoint" />
          </mxGeometry>
        </mxCell>
        <mxCell id="YhagCRoTJIzjtWiBORJF-59" value="3. getPolicyList (KundenID)" style="edgeLabel;html=1;align=center;verticalAlign=middle;resizable=0;points=[];" parent="YhagCRoTJIzjtWiBORJF-58" vertex="1" connectable="0">
          <mxGeometry x="-0.588" y="-2" relative="1" as="geometry">
            <mxPoint x="82" y="19" as="offset" />
          </mxGeometry>
        </mxCell>
        <mxCell id="YhagCRoTJIzjtWiBORJF-60" value="" style="endArrow=classic;html=1;rounded=0;entryX=0.862;entryY=0.983;entryDx=0;entryDy=0;entryPerimeter=0;exitX=0.25;exitY=0;exitDx=0;exitDy=0;" parent="1" source="YhagCRoTJIzjtWiBORJF-52" target="YhagCRoTJIzjtWiBORJF-49" edge="1">
          <mxGeometry width="50" height="50" relative="1" as="geometry">
            <mxPoint x="150" y="500" as="sourcePoint" />
            <mxPoint x="200" y="450" as="targetPoint" />
          </mxGeometry>
        </mxCell>
        <mxCell id="YhagCRoTJIzjtWiBORJF-61" value="4. PolicyList" style="edgeLabel;html=1;align=center;verticalAlign=middle;resizable=0;points=[];" parent="YhagCRoTJIzjtWiBORJF-60" vertex="1" connectable="0">
          <mxGeometry x="0.4067" y="1" relative="1" as="geometry">
            <mxPoint x="-31" y="15" as="offset" />
          </mxGeometry>
        </mxCell>
      </root>
    </mxGraphModel>
  </diagram>
</mxfile>
